<?xml version="1.0" standalone="no"?>
<!DOCTYPE svg PUBLIC "-//W3C//DTD SVG 20010904//EN"
 "http://www.w3.org/TR/2001/REC-SVG-20010904/DTD/svg10.dtd">
<svg version="1.0" xmlns="http://www.w3.org/2000/svg"
 width="1024.000000pt" height="1024.000000pt" viewBox="0 0 1024.000000 1024.000000"
 preserveAspectRatio="xMidYMid meet">
<g transform="translate(0.000000,1024.000000) scale(0.100000,-0.100000)"
fill="#7d42e7" stroke="none">
<path d="M4960 7930 c-1148 -63 -2146 -826 -2510 -1920 -75 -224 -122 -460
-136 -678 -6 -88 -9 -102 -28 -111 -20 -11 -20 -11 3 -5 22 6 23 4 19 -37 -7
-66 9 -350 27 -469 25 -170 63 -325 119 -490 29 -85 57 -164 61 -174 8 -18 5
-19 -62 -13 -250 24 -519 91 -688 173 -284 137 -329 344 -124 568 115 125 298
258 512 371 59 32 106 59 104 62 -14 13 -569 -222 -807 -342 -501 -253 -816
-501 -933 -734 -40 -80 -42 -89 -42 -170 0 -73 4 -95 27 -144 103 -219 481
-384 1068 -466 311 -44 462 -53 940 -58 l465 -5 135 -137 c582 -587 1343 -882
2162 -840 876 46 1670 492 2170 1219 120 174 210 344 305 574 l28 70 230 86
c711 268 1238 553 1522 824 174 166 252 311 241 450 -28 345 -629 577 -1623
627 -115 5 -257 13 -313 17 l-104 7 -52 115 c-214 470 -575 887 -1016 1175
-206 135 -362 213 -595 297 -339 122 -730 178 -1105 158z m2920 -1795 c291
-49 528 -142 637 -252 60 -60 83 -112 83 -194 0 -172 -172 -360 -524 -571 -72
-43 -134 -78 -139 -78 -5 0 -7 15 -4 33 7 49 -10 339 -28 457 -29 192 -99 463
-160 613 -6 15 -4 17 16 13 13 -3 67 -13 119 -21z"/>
</g>
</svg>
